<svg width="80" height="80" viewBox="0 0 80 80" fill="none" xmlns="http://www.w3.org/2000/svg">
<path d="M26.9951 19.2196L35.6806 11.5099C37.4291 9.95773 38.8285 8.17842 39.8437 6.24677C40.8523 4.32777 39.5984 2.07426 37.2647 1.63505C35.563 1.31475 33.8648 2.10066 33.1257 3.49843C32.4717 4.7351 31.5735 5.87459 30.453 6.86925L21.7712 14.5757L26.9951 19.2196Z" fill="#91DEF5"/>
<path d="M6.28256 1.63401C7.98272 1.31324 9.68006 2.09775 10.4195 3.4941C11.0731 4.72844 11.9702 5.86574 13.089 6.85883L26.9985 19.2057L26.9948 19.209L35.6803 26.9187C43.8151 34.1397 43.8151 45.8473 35.6803 53.0683L26.9948 60.778L21.7708 56.1343L30.4525 48.4278C35.7001 43.7697 35.7001 36.2175 30.4525 31.5594L16.543 19.2125L16.5467 19.2092L7.86109 11.4993C6.11516 9.9495 4.71705 8.17269 3.70213 6.24385C2.69337 4.32689 3.94521 2.07493 6.27657 1.63495L6.28256 1.63401Z" fill="#FFCB7C"/>
<path d="M6.27705 78.3627C3.9434 77.9235 2.68945 75.67 3.69803 73.751C4.71331 71.8193 6.11265 70.04 7.86122 68.4879L16.5467 60.7782L21.7707 65.4219L13.089 73.1284C11.9684 74.123 11.07 75.2625 10.4163 76.4992C9.6772 77.8971 7.9788 78.683 6.27705 78.3627Z" fill="#FFCB7C"/>
<path d="M37.2591 78.3635C35.5589 78.6843 33.8616 77.8998 33.1221 76.5034C32.4686 75.2691 31.5714 74.1318 30.4526 73.1387L16.5432 60.7918L16.5469 60.7885L7.8614 53.0788C-0.273462 45.8578 -0.273462 34.1502 7.8614 26.9292L16.5469 19.2195L21.7709 23.8632L13.0891 31.5697C7.84151 36.2278 7.84151 43.78 13.0891 48.4381L26.9986 60.785L26.9949 60.7883L35.6804 68.4981C37.4263 70.0479 38.8244 71.8247 39.8394 73.7535C40.8481 75.6705 39.5963 77.9224 37.2649 78.3624L37.2591 78.3635Z" fill="#91DEF5"/>
<path d="M64.1587 9.9998H78.2402V24.9993H64.1587V9.9998Z" fill="#FFCB7C"/>
<path d="M77.5361 24.9993H64.8628V64.3729C64.8628 67.4794 67.6999 69.9977 71.1995 69.9977C74.699 69.9977 77.5361 67.4794 77.5361 64.3729V24.9993Z" fill="#CFF1FB"/>
<path d="M77.5361 39.7106H64.8628V64.3729C64.8628 67.4793 67.6999 69.9977 71.1995 69.9977C74.699 69.9977 77.5361 67.4793 77.5361 64.3729V39.7106Z" fill="#F6838D"/>
<path d="M36.9251 67.3932L29.4785 60.7833L36.9251 54.1734C39.0085 52.3239 40.6398 50.1737 41.7739 47.7827C42.1511 46.9874 41.7306 46.0713 40.8347 45.7364C39.9389 45.4018 38.9066 45.7748 38.5294 46.5702C37.5727 48.5869 36.1955 50.4015 34.4357 51.9638L26.9928 58.5704L24.2543 56.1396L31.697 49.5329C34.5675 46.9849 36.1484 43.5974 36.1484 39.9939C36.1484 36.3904 34.5675 33.0027 31.697 30.4549L9.10595 10.3945C7.51616 8.98328 6.23474 7.36443 5.2971 5.58262C5.04292 5.09951 5.05014 4.55 5.31663 4.07486C5.58048 3.60488 6.06383 3.27255 6.64856 3.16224C7.53235 2.99615 8.42758 3.40535 8.82661 4.15876C9.57328 5.56887 10.5886 6.84898 11.8444 7.96363L34.4359 28.0237C36.182 29.5736 37.5521 31.373 38.5077 33.3716C38.8876 34.166 39.9211 34.5366 40.8157 34.1994C41.7105 33.8622 42.128 32.9449 41.7482 32.1507C40.615 29.781 38.9923 27.6492 36.9251 25.8141L29.4899 19.2143L36.9251 12.6144C38.8082 10.9427 40.3269 9.02266 41.4388 6.90711C42.1495 5.5545 42.1275 4.01408 41.3782 2.68069C40.6319 1.35261 39.2656 0.414209 37.6297 0.106251C35.1362 -0.36342 32.6292 0.758728 31.5319 2.83428C31.1823 3.49551 30.7541 4.1197 30.254 4.70156H13.2962C12.7939 4.11845 12.3639 3.49254 12.0127 2.82944C10.9145 0.755759 8.40751 -0.364513 5.91087 0.106876C4.27584 0.415303 2.91081 1.35371 2.16573 2.68163C1.41765 4.01455 1.39653 5.55403 2.10764 6.90523C3.2192 9.01766 4.7363 10.9351 6.6167 12.6042L14.0633 19.2142L6.6167 25.8243C2.34984 29.6118 0 34.6475 0 40.0039C0 45.3603 2.34984 50.3959 6.6167 54.1834L14.0517 60.7833L6.6167 67.3831C4.73366 69.0546 3.21497 70.9748 2.10307 73.0904C1.39213 74.4428 1.41413 75.9833 2.16344 77.3167C2.90976 78.6449 4.27601 79.5833 5.9121 79.8912C6.29125 79.9627 6.67074 79.9972 7.04549 79.9972C9.135 79.9972 11.0793 78.923 12.0097 77.1632C12.3593 76.5022 12.7874 75.8781 13.2874 75.2962H30.2458C30.7481 75.8794 31.1779 76.5051 31.5291 77.1681C32.4606 78.9272 34.4056 80.0002 36.4851 80C36.857 80 37.2335 79.9656 37.6091 79.8947C37.6146 79.8937 37.6259 79.8917 37.6311 79.8908C39.2662 79.5822 40.631 78.6438 41.3763 77.3159C42.1242 75.9831 42.1453 74.4436 41.4344 73.0924C40.3228 70.9802 38.8057 69.0626 36.9251 67.3932ZM16.6686 7.8266H26.8847L21.7766 12.3608L16.6686 7.8266ZM36.8994 3.16317C37.4792 3.27223 37.9636 3.60488 38.228 4.07533C38.4954 4.55109 38.5028 5.1017 38.2484 5.58575C37.3104 7.37006 36.0278 8.99141 34.4357 10.4045L27.0044 17.001L24.2659 14.5701L31.6972 7.97363C32.9552 6.85695 33.9717 5.5745 34.7187 4.16173C35.1178 3.40723 36.0148 2.99677 36.8994 3.16317ZM16.6596 49.3978H26.8706L21.7652 53.9297L16.6596 49.3978ZM21.7766 26.0677L26.8824 30.5999H16.6709L21.7766 26.0677ZM13.3109 33.7135C13.3777 33.7204 13.4457 33.7248 13.5147 33.7248H30.1002C30.1488 33.7248 30.1965 33.7218 30.244 33.7183C31.4353 35.1025 32.2073 36.7164 32.4976 38.4365H11.0462C11.3387 36.7139 12.1145 35.0983 13.3109 33.7135ZM32.4956 41.5614C32.2033 43.2818 31.4291 44.8955 30.2352 46.279C30.1905 46.276 30.1458 46.2729 30.1002 46.2729H13.2922C12.1041 44.8901 11.334 43.2788 11.0443 41.5614H32.4956ZM6.6424 76.8343C6.0626 76.7251 5.5782 76.3926 5.31382 75.9219C5.04645 75.4461 5.03905 74.8956 5.2934 74.4116C6.2314 72.6271 7.51404 71.0058 9.10613 69.5927L16.5376 62.9962L19.2761 65.4271L11.8446 72.0237C10.5864 73.1405 9.56994 74.423 8.82309 75.8355C8.42388 76.5901 7.5269 77.0004 6.6424 76.8343ZM26.8736 72.1712H16.657L21.7652 67.6368L26.8736 72.1712ZM38.225 75.9225C37.9612 76.3926 37.4778 76.725 36.9149 76.831C36.9095 76.8321 36.8982 76.8342 36.8929 76.8351C36.0095 77.0023 35.1141 76.592 34.715 75.8386C33.9684 74.4286 32.9531 73.1484 31.6972 72.0336L9.10595 51.9736C5.50409 48.7764 3.52037 44.5253 3.52037 40.0037C3.52037 35.482 5.50409 31.2311 9.10595 28.0337L16.5489 21.4271L19.2816 23.8528L11.8444 30.4647C8.97394 33.0127 7.39312 36.4004 7.39312 40.0039C7.39312 43.6074 8.97394 46.9951 11.8444 49.5429L34.4357 69.603C36.0257 71.0142 37.3071 72.6334 38.2446 74.4149C38.4987 74.8978 38.4917 75.4473 38.225 75.9225Z" fill="black"/>
<path d="M41.771 38.4363C41.308 38.4363 40.8539 38.6035 40.5265 38.8941C40.1973 39.1847 40.0107 39.5879 40.0107 39.9988C40.0107 40.4097 40.1973 40.8129 40.5265 41.1033C40.8539 41.394 41.308 41.5613 41.771 41.5613C42.2339 41.5613 42.6881 41.3941 43.0155 41.1033C43.3429 40.8129 43.5312 40.4097 43.5312 39.9988C43.5312 39.5879 43.3429 39.1847 43.0155 38.8941C42.6881 38.6035 42.2339 38.4363 41.771 38.4363Z" fill="black"/>
<path d="M78.2396 8.43736H64.1581C63.186 8.43736 62.3979 9.13687 62.3979 9.99981V24.9993C62.3979 25.51 62.6752 25.9621 63.102 26.247V64.3729C63.102 68.3359 66.7343 71.5601 71.1989 71.5601C75.6634 71.5601 79.2957 68.3359 79.2957 64.3729V26.247C79.7226 25.9619 79.9998 25.5099 79.9998 24.9993V9.99981C79.9998 9.13687 79.2117 8.43736 78.2396 8.43736ZM75.7753 38.1482H66.6224V26.5617H75.7753V38.1482ZM65.9183 11.5623H76.4794V23.4368H65.9183V11.5623ZM71.1989 68.4352C68.6755 68.4352 66.6224 66.613 66.6224 64.3729V41.2731H75.7753V64.3729C75.7753 66.613 73.7223 68.4352 71.1989 68.4352Z" fill="black"/>
</svg>
