<svg width="80" height="80" viewBox="0 0 80 80" fill="none" xmlns="http://www.w3.org/2000/svg">
<path d="M41.2902 5.16129H38.7096V7.74193H36.1289V10.3226H38.7096V12.9032H41.2902V10.3226H43.8708V7.74193H41.2902V5.16129Z" fill="white"/>
<path d="M43.871 25.8064V20.6452H46.4516C47.8749 20.6452 49.0323 19.4878 49.0323 18.0645V16.7742H56.0837L59.6969 22.1925L64.6157 8.66557L67.5365 15.4839H80V12.9032H69.2376L64.4178 1.65701L59.014 16.5171L57.4647 14.1935H49.0323V2.58065C49.0323 1.15738 47.8749 0 46.4516 0H33.5484C32.1251 0 30.9677 1.15738 30.9677 2.58065V9.03226H19.7946L16.8725 15.8506L11.955 2.32359L8.34173 7.74194H0V10.3226H9.72278L11.2708 7.99899L16.6746 22.8591L21.4957 11.6129H30.9677V18.0645C30.9677 19.4878 32.1251 20.6452 33.5484 20.6452H36.129V25.8064H38.7097V33.5484H32.2581C30.0655 33.5484 27.8711 34.0657 25.911 35.0466L25.0158 35.4939C24.191 32.8812 21.7729 30.9677 18.8905 30.9677H14.1935C12.7356 30.9677 11.4037 31.4724 10.3226 32.2915V27.0968C10.3226 24.9628 8.58556 23.2258 6.45161 23.2258C4.31767 23.2258 2.58065 24.9628 2.58065 27.0968V46.4516C1.15738 46.4516 0 47.609 0 49.0323V51.6129C0 53.0362 1.15738 54.1935 2.58065 54.1935H6.45161V68.4016C4.83493 69.6182 3.87097 71.5121 3.87097 73.5484C3.87097 77.1056 6.76537 80 10.3226 80C13.8798 80 16.7742 77.1056 16.7742 73.5484C16.7742 71.5134 15.8002 69.6037 14.1935 68.3934V54.1935H65.8064V68.3934C64.1998 69.6024 63.2258 71.5134 63.2258 73.5484C63.2258 77.1056 66.1202 80 69.6774 80C73.2346 80 76.129 77.1056 76.129 73.5484C76.129 71.5134 75.155 69.6037 73.5484 68.3934V54.1935H77.4193C78.8426 54.1935 80 53.0362 80 51.6129V49.0323C80 47.609 78.8426 46.4516 77.4193 46.4516H77.3538C76.6992 39.2282 70.6168 33.5484 63.2258 33.5484H41.2903V25.8064H43.871ZM14.1935 33.5484H18.8905C21.0244 33.5484 22.7615 35.2854 22.7615 37.4194C22.7615 39.5533 21.0244 41.2903 18.8905 41.2903H14.1935C12.0596 41.2903 10.3226 39.5533 10.3226 37.4194C10.3226 35.2854 12.0596 33.5484 14.1935 33.5484ZM19.3548 43.871C21.0345 43.871 22.454 44.9534 22.9883 46.4516H10.5601C11.0944 44.9534 12.5139 43.871 14.1935 43.871H19.3548ZM10.3226 42.5473C10.3371 42.5586 10.3484 42.5706 10.3623 42.5806C10.3484 42.5907 10.3371 42.6027 10.3226 42.614V42.5473ZM5.16129 27.0968C5.16129 26.3861 5.73967 25.8064 6.45161 25.8064C7.16356 25.8064 7.74194 26.3861 7.74194 27.0968V46.4516H5.16129V27.0968ZM10.3226 77.4193C8.18863 77.4193 6.45161 75.6823 6.45161 73.5484C6.45161 73.1042 6.55242 72.6827 6.69544 72.2763C7.23349 73.7651 8.64919 74.8387 10.3226 74.8387C11.9947 74.8387 13.4104 73.7664 13.9497 72.2776C14.0927 72.684 14.1935 73.1061 14.1935 73.5484C14.1935 75.6823 12.4565 77.4193 10.3226 77.4193ZM11.6129 70.9677C11.6129 71.6784 11.0345 72.2581 10.3226 72.2581C9.61063 72.2581 9.03226 71.6784 9.03226 70.9677V54.1935H11.6129V70.9677ZM69.6774 77.4193C67.5435 77.4193 65.8064 75.6823 65.8064 73.5484C65.8064 73.1061 65.9073 72.684 66.0503 72.2776C66.5896 73.7664 68.0053 74.8387 69.6774 74.8387C71.3495 74.8387 72.7652 73.7664 73.3046 72.2776C73.4476 72.684 73.5484 73.1061 73.5484 73.5484C73.5484 75.6823 71.8114 77.4193 69.6774 77.4193ZM70.9677 70.9677C70.9677 71.6784 70.3894 72.2581 69.6774 72.2581C68.9655 72.2581 68.3871 71.6784 68.3871 70.9677V54.1935H70.9677V70.9677ZM74.7625 46.4516H69.6774V49.0323H77.4193V51.6129H2.58065V49.0323H67.0968V46.4516H25.676C25.3327 44.7675 24.3315 43.3203 22.9524 42.3897C24.191 41.3754 25.0372 39.9225 25.2571 38.2592L27.0659 37.3551C28.6681 36.5537 30.4631 36.129 32.2581 36.129H63.2258C69.1936 36.129 74.1186 40.654 74.7625 46.4516ZM33.5484 2.58065H46.4516L46.4529 18.0645H33.5484V2.58065ZM41.2903 20.6452V23.2258H38.7097V20.6452H41.2903Z" fill="white"/>
</svg>
