<svg width="80" height="80" viewBox="0 0 80 80" fill="none" xmlns="http://www.w3.org/2000/svg">
<path d="M59.3547 25.8065H67.0966V20.6452H72.2579V12.9032H67.0966V7.74194H59.3547V12.9032H54.1934V20.6452H59.3547V25.8065ZM56.774 18.0645V15.4839H61.9353V10.3226H64.5159V15.4839H69.6772V18.0645H64.5159V23.2258H61.9353V18.0645H56.774Z" fill="#FF5B6E"/>
<path d="M76.129 41.2903H67.0968V33.08C74.4826 31.3252 80 24.6903 80 16.7742C80 7.52516 72.4748 0 63.2258 0C53.9768 0 46.4516 7.52516 46.4516 16.7742C46.4516 20.1006 47.4361 23.1961 49.1135 25.8064H28.3871C27.9832 25.8064 27.5974 25.6142 27.3548 25.2903L25.0323 22.1923C24.3045 21.2232 23.1471 20.6452 21.9355 20.6452H3.87097C1.73677 20.6452 0 22.3819 0 24.5161V60.6452C0 62.7794 1.73677 64.5161 3.87097 64.5161H12.9032V76.129C12.9032 78.2632 14.64 80 16.7742 80H76.129C78.2632 80 80 78.2632 80 76.129V45.1613C80 43.0271 78.2632 41.2903 76.129 41.2903ZM77.4193 45.1613V46.4516H15.4839V40C15.4839 39.289 16.0632 38.7097 16.7742 38.7097H34.8387C35.2426 38.7097 35.6284 38.9019 35.871 39.2258L38.1935 42.3239C38.9213 43.2929 40.0787 43.871 41.2903 43.871H76.129C76.84 43.871 77.4193 44.4503 77.4193 45.1613ZM63.2258 2.58065C71.0516 2.58065 77.4193 8.94839 77.4193 16.7742C77.4193 24.6 71.0516 30.9677 63.2258 30.9677C55.4 30.9677 49.0323 24.6 49.0323 16.7742C49.0323 8.94839 55.4 2.58065 63.2258 2.58065ZM3.87097 23.2258H21.9355C22.3394 23.2258 22.7252 23.4181 22.9677 23.7419L25.2903 26.84C26.0181 27.809 27.1755 28.3871 28.3871 28.3871H51.1497C52.0968 29.3729 53.1652 30.2361 54.3277 30.9677H2.58065V24.5161C2.58065 23.8052 3.16 23.2258 3.87097 23.2258ZM3.87097 61.9355C3.16 61.9355 2.58065 61.3561 2.58065 60.6452V33.5484H63.2258C63.6619 33.5484 64.089 33.5161 64.5161 33.4826V41.2903H41.2903C40.8865 41.2903 40.5006 41.0981 40.2581 40.7742L37.9355 37.6761C37.2077 36.7071 36.0503 36.129 34.8387 36.129H16.7742C14.64 36.129 12.9032 37.8658 12.9032 40V43.871H5.16129V59.3548H12.9032V61.9355H3.87097ZM12.9032 46.4516V56.7742H7.74194V46.4516H12.9032ZM76.129 77.4193H16.7742C16.0632 77.4193 15.4839 76.84 15.4839 76.129V49.0323H77.4193V76.129C77.4193 76.84 76.84 77.4193 76.129 77.4193Z" fill="black"/>
<path d="M40.1277 67.635L34.8386 66.124V65.7808C36.4464 64.5692 37.4193 62.6634 37.4193 60.6466V58.3343C37.4193 54.8659 34.8374 51.9266 31.5406 51.6401C29.7354 51.4789 27.9367 52.0918 26.609 53.3098C25.2786 54.5279 24.5161 56.2621 24.5161 58.0647V60.6453C24.5161 62.6621 25.489 64.5692 27.0967 65.7795V66.1227L21.8077 67.6337C19.6038 68.2634 18.0645 70.3047 18.0645 72.5976V74.8389H43.8709V72.5976C43.8709 70.3047 42.3315 68.2634 40.1277 67.635ZM20.6683 72.2582C20.8025 71.2543 21.5251 70.4001 22.5174 70.1163L29.6774 68.0698V64.3485L29.0361 63.9756C27.8219 63.2685 27.0967 62.0234 27.0967 60.6453V58.0647C27.0967 56.9834 27.5548 55.9421 28.3535 55.2105C29.1612 54.4685 30.2077 54.1111 31.3186 54.2092C33.2915 54.3808 34.8386 56.1911 34.8386 58.333V60.6453C34.8386 62.0234 34.1135 63.2685 32.8993 63.9756L32.258 64.3485V68.0698L39.4193 70.115C40.4115 70.3989 41.1341 71.253 41.2683 72.2569H20.6683V72.2582Z" fill="black"/>
<path d="M18.0645 41.2903H20.6451V43.8709H18.0645V41.2903Z" fill="black"/>
<path d="M23.2258 41.2903H25.8065V43.8709H23.2258V41.2903Z" fill="black"/>
<path d="M28.3872 41.2903H30.9679V43.8709H28.3872V41.2903Z" fill="black"/>
<path d="M5.16138 25.8064H7.74202V28.387H5.16138V25.8064Z" fill="black"/>
<path d="M10.3228 25.8064H12.9034V28.387H10.3228V25.8064Z" fill="black"/>
<path d="M15.4839 25.8064H18.0645V28.387H15.4839V25.8064Z" fill="black"/>
<path d="M46.4517 74.8386H74.8388V51.6128H46.4517V74.8386ZM49.0323 54.1934H72.2581V72.258H49.0323V54.1934Z" fill="black"/>
<path d="M51.6128 56.7742H69.6773V59.3548H51.6128V56.7742Z" fill="black"/>
<path d="M51.6128 61.9355H69.6773V64.5162H51.6128V61.9355Z" fill="black"/>
<path d="M51.6128 67.0967H54.1934V69.6773H51.6128V67.0967Z" fill="black"/>
<path d="M56.7742 67.0967H69.6774V69.6773H56.7742V67.0967Z" fill="black"/>
<path d="M18.0645 51.6128H20.6451V54.1934H18.0645V51.6128Z" fill="black"/>
<path d="M18.0645 56.7742H20.6451V59.3548H18.0645V56.7742Z" fill="black"/>
<path d="M18.0645 61.9355H20.6451V64.5162H18.0645V61.9355Z" fill="black"/>
<path d="M59.3547 36.1292H61.9354V38.7098H59.3547V36.1292Z" fill="black"/>
<path d="M54.1934 36.1292H56.774V38.7098H54.1934V36.1292Z" fill="black"/>
<path d="M49.0325 36.1292H51.6131V38.7098H49.0325V36.1292Z" fill="black"/>
</svg>
