<svg width="80" height="80" viewBox="0 0 80 80" fill="none" xmlns="http://www.w3.org/2000/svg">
<path d="M78.822 12.0592C79.4727 12.0592 80 11.1348 80 9.99438V2.06478C80 0.924336 79.4727 0 78.822 0H48.4686C47.818 0 47.2906 0.924336 47.2906 2.06478C47.2906 3.20629 47.818 4.13063 48.4686 4.13063H64.6216V75.8694H12.475V4.13063H43.4277C44.0784 4.13063 44.6063 3.20629 44.6063 2.06478C44.6063 0.924336 44.0784 0 43.4277 0H1.17798C0.527344 0 0 0.924336 0 2.06478V9.99438C0 11.1348 0.527344 12.0592 1.17798 12.0592C2.83142 12.0592 4.17664 14.4171 4.17664 17.3153C4.17664 20.2134 2.83142 22.5703 1.17798 22.5703C0.527344 22.5703 0 23.4957 0 24.6361V32.6791C0 33.8196 0.527344 34.7439 1.17798 34.7439C2.83142 34.7439 4.17664 37.1018 4.17664 40C4.17664 42.8982 2.83142 45.2561 1.17798 45.2561C0.527344 45.2561 0 46.1804 0 47.3209V55.3639C0 56.5043 0.527344 57.4287 1.17798 57.4287C2.83142 57.4287 4.17664 59.7866 4.17664 62.6847C4.17664 65.5829 2.83142 67.9408 1.17798 67.9408C0.527344 67.9408 0 68.8652 0 70.0056V77.9342C0 79.0746 0.527344 80 1.17798 80H78.822C79.4727 80 80 79.0746 80 77.9342V70.0056C80 68.8652 79.4727 67.9408 78.822 67.9408C77.1686 67.9408 75.8234 65.5829 75.8234 62.6847C75.8234 59.7866 77.1686 57.4287 78.822 57.4287C79.4727 57.4287 80 56.5043 80 55.3639V47.3209C80 46.1804 79.4727 45.255 78.822 45.255C77.1686 45.255 75.8234 42.8971 75.8234 39.9989C75.8234 37.1008 77.1686 34.7439 78.822 34.7439C79.4727 34.7439 80 33.8185 80 32.6781V24.6351C80 23.4946 79.4727 22.5703 78.822 22.5703C77.1686 22.5703 75.8234 20.2124 75.8234 17.3142C75.8234 14.416 77.1686 12.0592 78.822 12.0592ZM2.35657 71.8415C4.74426 70.8989 6.5332 67.1513 6.5332 62.6847C6.5332 58.2182 4.74426 54.4706 2.35657 53.527V49.1578C4.74426 48.2142 6.5332 44.4666 6.5332 40C6.5332 35.5334 4.74426 31.7858 2.35657 30.8422V26.472C4.74426 25.5294 6.5332 21.7818 6.5332 17.3153C6.5332 12.8487 4.74426 9.10107 2.35657 8.15748V4.13063H10.1184V75.8694H2.35657V71.8415ZM77.6434 26.472V30.8422C75.2557 31.7858 73.4668 35.5334 73.4668 40C73.4668 44.4666 75.2557 48.2142 77.6434 49.1567V53.527C75.2557 54.4706 73.4668 58.2182 73.4668 62.6847C73.4668 67.1502 75.2557 70.8989 77.6434 71.8415V75.8683H66.9781V4.13063H77.6434V8.15748C75.2557 9.10107 73.4668 12.8487 73.4668 17.3153C73.4668 21.7807 75.2557 25.5294 77.6434 26.472Z" fill="black"/>
<path d="M59.0496 34.4411C59.5873 34.4411 60.0573 33.8024 60.1904 32.8888C60.324 31.9751 60.0878 31.0187 59.616 30.5651L42.1203 13.7345C41.4862 13.1247 40.783 12.7994 40.0897 12.7952H40.0579C39.3646 12.7984 38.6639 13.1193 38.0316 13.7227L20.3869 30.5619C19.9139 31.0134 19.6759 31.9698 19.8083 32.8856C19.9414 33.8003 20.4119 34.4411 20.9503 34.4411H26.0766V52.1426H23.7463C23.0957 52.1426 22.5683 53.0669 22.5683 54.2073V65.1389C22.5683 66.2793 23.0957 67.2037 23.7463 67.2037H41.5618C42.2125 67.2037 42.7398 66.2793 42.7398 65.1389C42.7398 63.9985 42.2125 63.0731 41.5618 63.0731H24.9249V56.2732H55.075V63.0731H46.6052C45.9539 63.0731 45.4266 63.9985 45.4266 65.1389C45.4266 66.2793 45.9539 67.2037 46.6052 67.2037H56.253C56.9036 67.2037 57.4316 66.2793 57.4316 65.1389V54.2073C57.4316 53.0669 56.9036 52.1426 56.253 52.1426H53.9233V34.4411H59.0496ZM39.1583 17.3505C39.4482 17.0745 39.7607 16.9279 40.0634 16.9258H40.0793C40.3826 16.9279 40.6964 17.0766 40.9863 17.3559L54.4537 30.3105H25.5786L39.1583 17.3505ZM46.7126 34.4411V52.1426H43.6053V34.4411H46.7126ZM36.3946 34.4411V52.1426H33.2873V34.4411H36.3946ZM28.4332 52.1426V34.4411H30.9307V52.1426H28.4332ZM38.7512 52.1426V34.4411H41.2487V52.1426H38.7512ZM51.5667 52.1426H49.0692V34.4411H51.5667V52.1426Z" fill="black"/>
</svg>
