<svg width="80" height="80" viewBox="0 0 80 80" fill="none" xmlns="http://www.w3.org/2000/svg">
<path d="M20.852 63.8545C19.942 63.2493 18.9033 62.865 17.8187 62.7318C19.8993 61.094 21.1788 58.6433 21.3333 55.9998C21.3333 47.1837 16.2573 45.333 12 45.333C7.74267 45.333 2.66667 47.1837 2.66667 55.9998C2.82151 58.6434 4.10151 61.0941 6.18267 62.7318C2.64834 63.1673 -0.00515913 66.172 7.53203e-06 69.7332V78.6666C7.53203e-06 79.403 0.597007 80 1.33334 80H22.6667C23.403 80 24 79.403 24 78.6666V69.7332C24.0015 67.37 22.8197 65.1632 20.852 63.8545ZM5.40267 54.5891C5.76401 50.1197 7.86667 47.9997 12 47.9997C15.784 47.9997 17.8667 49.789 18.4627 53.5224L14.02 50.8557C13.3885 50.4769 12.5695 50.6817 12.1907 51.3132C12.1407 51.3966 12.1 51.4849 12.0693 51.5771C11.3947 53.6011 7.75201 54.3664 5.40267 54.5891ZM5.51867 57.2638C7.80134 57.0758 11.9187 56.3851 13.8387 53.8571L18.604 56.7171C18.0693 59.9825 14.0467 62.6665 12 62.6665C9.02617 62.16 6.55234 60.0978 5.51867 57.2638ZM13.1013 70.3439L12 71.4479L10.8987 70.3452L12 67.5892L13.1013 70.3439ZM21.3333 77.3333H2.66667V69.7332C2.66667 67.3032 4.63667 65.3332 7.06667 65.3332H10.0267L8.09467 70.1719C7.89717 70.667 8.01351 71.2324 8.39067 71.6092L11.0573 74.2759C11.578 74.7964 12.422 74.7964 12.9427 74.2759L15.6093 71.6092C15.9865 71.2324 16.1028 70.667 15.9053 70.1719L13.9693 65.3332H16.9333C19.3633 65.3332 21.3333 67.3032 21.3333 69.7332V77.3333Z" fill="#00C3FF"/>
<path d="M48.852 63.8545C47.942 63.2493 46.9033 62.865 45.8187 62.7318C47.8993 61.094 49.1788 58.6433 49.3333 55.9998C49.3333 47.1837 44.2573 45.333 40 45.333C35.7427 45.333 30.6667 47.1837 30.6667 55.9998C30.8215 58.6434 32.1015 61.0941 34.1827 62.7318C30.6483 63.1673 27.9948 66.172 28 69.7332V78.6666C28 79.403 28.597 80 29.3333 80H50.6667C51.403 80 52 79.403 52 78.6666V69.7332C52.0015 67.37 50.8197 65.1632 48.852 63.8545ZM33.4027 54.5891C33.764 50.1197 35.8667 47.9997 40 47.9997C43.784 47.9997 45.8667 49.789 46.4627 53.5224L42.02 50.8557C41.3885 50.4769 40.5695 50.6817 40.1907 51.3132C40.1407 51.3966 40.1 51.4849 40.0693 51.5771C39.3947 53.6011 35.752 54.3664 33.4027 54.5891ZM33.5187 57.2638C35.8013 57.0758 39.9187 56.3851 41.8387 53.8571L46.604 56.7171C46.0693 59.9825 42.0467 62.6665 40 62.6665C37.0262 62.16 34.5523 60.0978 33.5187 57.2638ZM41.1013 70.3439L40 71.4479L38.8987 70.3452L40 67.5892L41.1013 70.3439ZM49.3333 77.3333H30.6667V69.7332C30.6667 67.3032 32.6367 65.3332 35.0667 65.3332H38.0267L36.0907 70.1719C35.8932 70.667 36.0095 71.2324 36.3867 71.6092L39.0533 74.2759C39.574 74.7964 40.418 74.7964 40.9387 74.2759L43.6053 71.6092C43.9825 71.2324 44.0988 70.667 43.9013 70.1719L41.9693 65.3332H44.9333C47.3633 65.3332 49.3333 67.3032 49.3333 69.7332V77.3333Z" fill="#00C3FF"/>
<path d="M76.852 63.8545C75.942 63.2493 74.9033 62.865 73.8187 62.7318C75.8993 61.094 77.1788 58.6433 77.3333 55.9998C77.3333 47.1837 72.2573 45.333 68 45.333C63.7427 45.333 58.6667 47.1837 58.6667 55.9998C58.8215 58.6434 60.1015 61.0941 62.1827 62.7318C58.6483 63.1673 55.9948 66.172 56 69.7332V78.6666C56 79.403 56.597 80 57.3333 80H78.6667C79.403 80 80 79.403 80 78.6666V69.7332C80.0015 67.37 78.8197 65.1632 76.852 63.8545ZM61.4027 54.5891C61.764 50.1197 63.8667 47.9997 68 47.9997C71.784 47.9997 73.8667 49.789 74.4627 53.5224L70.02 50.8557C69.3885 50.4769 68.5695 50.6817 68.1907 51.3132C68.1407 51.3966 68.1 51.4849 68.0693 51.5771C67.3947 53.6011 63.752 54.3664 61.4027 54.5891ZM61.5187 57.2638C63.8013 57.0758 67.9187 56.3851 69.8387 53.8571L74.604 56.7171C74.0693 59.9825 70.0467 62.6665 68 62.6665C65.0262 62.16 62.5523 60.0978 61.5187 57.2638ZM69.1013 70.3439L68 71.4479L66.8987 70.3452L68 67.5892L69.1013 70.3439ZM77.3333 77.3333H58.6667V69.7332C58.6667 67.3032 60.6367 65.3332 63.0667 65.3332H66.0267L64.0907 70.1719C63.8932 70.667 64.0095 71.2324 64.3867 71.6092L67.0533 74.2759C67.574 74.7964 68.418 74.7964 68.9387 74.2759L71.6053 71.6092C71.9825 71.2324 72.0988 70.667 71.9013 70.1719L69.9693 65.3332H72.9333C75.3633 65.3332 77.3333 67.3032 77.3333 69.7332V77.3333Z" fill="#00C3FF"/>
<path d="M61.3334 39.9997V22.6662C61.3334 21.9299 60.7364 21.3329 60 21.3329H48V17.3328C48 16.5965 47.403 15.9995 46.6667 15.9995H38.5667C36.6087 12.5935 32.9335 10.5431 29.0067 10.6661C23.1572 10.9938 18.6012 15.8665 18.6667 21.7249C18.6645 25.2062 19.6574 28.6156 21.528 31.5516L26.904 39.9997H25.3334V42.6664H62.6667V39.9997H61.3334ZM33.3334 39.9997H31.7627L33.3334 37.5317V39.9997ZM29.3334 38.8504L23.7787 30.1196C22.18 27.6118 21.3315 24.6991 21.3334 21.7249C21.2579 17.3042 24.674 13.6067 29.0867 13.3328H29.3334C33.7517 13.3328 37.3334 16.9145 37.3334 21.3329V21.7249C37.3362 24.7009 36.4877 27.6154 34.888 30.125L29.3334 38.8504ZM45.3334 39.9997H36V33.3396L37.1387 31.5516C39.0094 28.6156 40.0022 25.2062 40 21.7249V21.3329C39.9969 20.433 39.8804 19.537 39.6534 18.6662H45.3334V39.9997ZM54.6667 39.9997H52V35.9997H54.6667V39.9997ZM58.6667 25.3329H56V27.9996H58.6667V29.3329H56V31.9996H58.6667V39.9997H57.3334V34.6663C57.3334 33.93 56.7364 33.333 56 33.333H50.6667C49.9304 33.333 49.3334 33.93 49.3334 34.6663V39.9997H48V31.9996H50.6667V29.3329H48V27.9996H50.6667V25.3329H48V23.9996H58.6667V25.3329Z" fill="#00C3FF"/>
<path d="M43.9997 19.9995H41.333V22.6662H43.9997V19.9995Z" fill="#00C3FF"/>
<path d="M54.6667 25.3328H52V27.9995H54.6667V25.3328Z" fill="#00C3FF"/>
<path d="M54.6667 29.333H52V31.9997H54.6667V29.333Z" fill="#00C3FF"/>
<path d="M43.9997 23.9995H41.333V26.6662H43.9997V23.9995Z" fill="#00C3FF"/>
<path d="M43.9997 27.9995H41.333V30.6662H43.9997V27.9995Z" fill="#00C3FF"/>
<path d="M39.9997 31.9995H37.333V34.6662H39.9997V31.9995Z" fill="#00C3FF"/>
<path d="M43.9997 31.9995H41.333V34.6662H43.9997V31.9995Z" fill="#00C3FF"/>
<path d="M39.9997 35.9995H37.333V38.6662H39.9997V35.9995Z" fill="#00C3FF"/>
<path d="M43.9997 35.9995H41.333V38.6662H43.9997V35.9995Z" fill="#00C3FF"/>
<path d="M73.9906 27.8196L71.376 28.3463C71.54 29.1609 71.6733 29.9943 71.776 30.8223L74.42 30.5076C74.312 29.6089 74.168 28.7049 73.9906 27.8196Z" fill="#00C3FF"/>
<path d="M5.99991 27.8835C5.81991 28.7742 5.67858 29.6769 5.57324 30.5676L8.22124 30.8796C8.31724 30.0582 8.45058 29.2236 8.61324 28.3995L5.99991 27.8835Z" fill="#00C3FF"/>
<path d="M70.2187 17.6648L67.896 18.9741C68.3053 19.6981 68.696 20.4488 69.0427 21.2075L71.46 20.0821C71.0787 19.2621 70.66 18.4488 70.2187 17.6648Z" fill="#00C3FF"/>
<path d="M67.1895 13.1555L65.0962 14.8115C65.6122 15.4609 66.1109 16.1449 66.5789 16.8395L68.7895 15.3502C68.2829 14.5982 67.7442 13.8595 67.1895 13.1555Z" fill="#00C3FF"/>
<path d="M12.7828 13.1995C12.2215 13.9061 11.6828 14.6461 11.1802 15.3955L13.3962 16.8795C13.8588 16.1875 14.3562 15.5048 14.8735 14.8501L12.7828 13.1995Z" fill="#00C3FF"/>
<path d="M63.4931 9.17407L61.6851 11.1341C62.3024 11.7048 62.9011 12.3008 63.4624 12.9061L65.4184 11.0941C64.8104 10.4381 64.1624 9.79141 63.4931 9.17407Z" fill="#00C3FF"/>
<path d="M9.75576 17.7087C9.31576 18.4914 8.89842 19.3074 8.51709 20.1328L10.9358 21.2528C11.2891 20.4901 11.6744 19.7368 12.0784 19.0181L9.75576 17.7087Z" fill="#00C3FF"/>
<path d="M7.47463 22.6489C7.15863 23.5023 6.87597 24.3729 6.6333 25.2369L9.19863 25.961C9.42397 25.1609 9.6853 24.3609 9.9773 23.5716L7.47463 22.6489Z" fill="#00C3FF"/>
<path d="M16.4705 9.20605C15.8039 9.81806 15.1612 10.4647 14.5479 11.1287L16.5065 12.9381C17.0665 12.3274 17.6692 11.7327 18.2799 11.1647L16.4705 9.20605Z" fill="#00C3FF"/>
<path d="M72.5078 22.5942L70.0078 23.5209C70.2998 24.3063 70.5625 25.1089 70.7891 25.9076L73.3545 25.1783C73.1078 24.3129 72.8211 23.4449 72.5078 22.5942Z" fill="#00C3FF"/>
<path d="M30.5694 1.29932C29.6947 1.54732 28.824 1.83265 27.9854 2.14066L28.9093 4.64068C29.684 4.35534 30.488 4.09401 31.296 3.86467L30.5694 1.29932Z" fill="#00C3FF"/>
<path d="M35.9026 0.240723C35.012 0.346057 34.108 0.488725 33.2173 0.663393L33.7333 3.28075C34.5573 3.11808 35.392 2.98475 36.2146 2.88874L35.9026 0.240723Z" fill="#00C3FF"/>
<path d="M38.6133 0.0260098L38.7146 2.6927C39.5466 2.66336 40.3946 2.6607 41.2266 2.6927L41.3333 0.0260098C40.4306 -0.00999047 39.5159 -0.00732378 38.6133 0.0260098Z" fill="#00C3FF"/>
<path d="M25.4731 3.18066C24.6558 3.558 23.8398 3.98067 23.0518 4.41801L24.3584 6.74336C25.0864 6.33402 25.8371 5.94335 26.5931 5.60068L25.4731 3.18066Z" fill="#00C3FF"/>
<path d="M44.0387 0.232666L43.7334 2.88069C44.5534 2.97535 45.3881 3.10602 46.2147 3.26736L46.7254 0.650003C45.8307 0.475335 44.9334 0.335334 44.0387 0.232666Z" fill="#00C3FF"/>
<path d="M59.2199 5.81006L57.7412 8.02874C58.4292 8.48741 59.1119 8.98342 59.7732 9.50342L61.4212 7.4074C60.7052 6.84473 59.9652 6.30606 59.2199 5.81006Z" fill="#00C3FF"/>
<path d="M49.3708 1.28198L48.6548 3.85C49.4548 4.074 50.2548 4.33267 51.0414 4.62068L51.9601 2.11799C51.1121 1.80465 50.2414 1.52465 49.3708 1.28198Z" fill="#00C3FF"/>
<path d="M20.7346 5.84204C19.9799 6.35005 19.2399 6.88738 18.5386 7.44205L20.1892 9.5354C20.8372 9.0234 21.5226 8.52606 22.2212 8.05539L20.7346 5.84204Z" fill="#00C3FF"/>
<path d="M54.475 3.15674L53.3604 5.57809C54.1137 5.92609 54.8684 6.3101 55.6004 6.71677L56.9003 4.38875C56.1083 3.94874 55.2937 3.53274 54.475 3.15674Z" fill="#00C3FF"/>
<path d="M29.3333 15.9995C26.3878 15.9995 24 18.3874 24 21.3329C24 24.2784 26.3878 26.6663 29.3333 26.6663C32.2788 26.6663 34.6667 24.2784 34.6667 21.3329C34.6667 18.3874 32.2788 15.9995 29.3333 15.9995ZM29.3333 23.9996C27.8605 23.9996 26.6667 22.8057 26.6667 21.3329C26.6667 19.86 27.8605 18.6662 29.3333 18.6662C30.8062 18.6662 32 19.86 32 21.3329C32 22.8057 30.8062 23.9996 29.3333 23.9996Z" fill="#00C3FF"/>
</svg>
