<svg width="80" height="80" viewBox="0 0 80 80" fill="none" xmlns="http://www.w3.org/2000/svg">
<path d="M67.0966 1.24878V31.2622H63.2256V33.7623L55.4837 31.2622L36.1289 31.276V26.2758V10.0116V1.24878H67.0966Z" fill="white"/>
<path d="M51.6126 7.49902C56.5932 7.49902 60.6448 11.4241 60.6448 16.2493C60.6448 21.0869 56.5932 24.9996 51.6126 24.9996C46.6319 24.9996 42.5803 21.0869 42.5803 16.2493C42.5803 11.4241 46.6319 7.49902 51.6126 7.49902Z" fill="black"/>
<path d="M36.129 10.0115V26.2757H36.1161L27.0967 26.2495L20.6451 28.7496V26.2495H16.7742V10.0115H36.1161H36.129Z" fill="#D7E9FF"/>
<path d="M60.6448 16.2493C60.6448 11.4241 56.5932 7.49902 51.6126 7.49902C46.6319 7.49902 42.5803 11.4241 42.5803 16.2493C42.5803 21.0869 46.6319 24.9996 51.6126 24.9996C56.5932 24.9996 60.6448 21.0869 60.6448 16.2493Z" fill="#94C1FF"/>
<path d="M21.9354 65.0769V70.0008L21.9224 70.0271L16.7741 76.251L11.6128 70.0008V65.0769C13.1612 65.8257 14.9289 66.2507 16.7741 66.2507C18.6192 66.2507 20.387 65.8257 21.9354 65.0769Z" fill="#D7E9FF"/>
<path d="M78.7096 76.2512V78.7513H65.8064L68.387 70.001H72.258C75.8322 70.001 78.7096 72.8011 78.7096 76.2512Z" fill="white"/>
<path d="M72.2579 70.001H68.387C71.9599 70.0035 74.8347 72.8023 74.8347 76.2512V78.7513H78.7095V76.2512C78.7095 72.8011 75.8321 70.001 72.2579 70.001Z" fill="#D7E9FF"/>
<path d="M58.0643 70.001L60.6449 78.7513H47.7417V76.2512C47.7417 72.8011 50.632 70.001 54.1933 70.001H58.0643Z" fill="white"/>
<path d="M5.16138 42.5001C5.16138 40.4251 6.89041 38.75 9.03234 38.75V46.2502C9.03234 48.3253 7.30331 50.0004 5.16138 50.0004V42.5001Z" fill="#5C9EFF"/>
<path d="M63.2255 66.2507C65.0706 66.2507 66.8384 65.8257 68.3868 65.0769V65.0894V70.0008L65.8061 71.2509L63.2255 70.0008L60.6448 71.2509L58.0642 70.0008V65.0882V65.0757C59.6126 65.8257 61.3803 66.2507 63.2255 66.2507Z" fill="#94C1FF"/>
<path d="M74.8385 50.0503V55.0004C74.8385 59.4131 72.2063 63.2382 68.3869 65.077C66.8386 65.8258 65.0708 66.2508 63.2257 66.2508C61.3805 66.2508 59.6128 65.8258 58.0644 65.077C54.245 63.2382 51.6128 59.4143 51.6128 55.0004V54.9504V50.0503H51.6257H74.8385Z" fill="#D7E9FF"/>
<path d="M70.964 50.0503V55.0004C70.964 59.4131 68.3317 63.2382 64.5124 65.077C63.5175 65.5583 62.4272 65.887 61.2878 66.0758C61.9214 66.1783 62.5653 66.2508 63.2259 66.2508C65.0711 66.2508 66.8388 65.8258 68.3872 65.077C72.2065 63.2382 74.8388 59.4143 74.8388 55.0004V50.0503H70.964Z" fill="#94C1FF"/>
<path d="M32.2582 48.1376V58.7767C32.2582 55.8004 30.7227 53.1765 28.3873 51.6015V51.589C26.9292 50.6014 25.1486 50.0264 23.226 50.0264V50.0002H12.9034C10.7615 50.0002 9.03247 48.3251 9.03247 46.2501V38.7498C11.497 36.3122 14.9163 35.0122 18.7099 35.0122C26.1937 35.0122 32.2582 40.8874 32.2582 48.1376Z" fill="#94C1FF"/>
<path d="M18.7095 35.0122C18.027 35.0122 17.3624 35.0685 16.7083 35.1522C23.3018 36.0372 28.3831 41.5049 28.3831 48.1376V51.5865C28.3844 51.5877 28.3856 51.5877 28.3869 51.589V51.6015C30.7224 53.1765 32.2579 55.8004 32.2579 58.7767V48.1376C32.2579 40.8874 26.1934 35.0122 18.7095 35.0122Z" fill="#5C9EFF"/>
<path d="M68.3868 70.001L65.8061 78.7513H60.6448L58.0642 70.001L60.6448 71.251L63.2255 70.001L65.8061 71.251L68.3868 70.001Z" fill="#94C1FF"/>
<path d="M32.258 78.7513H1.29028V76.2512C1.29028 72.8011 4.1677 70.001 7.74188 70.001H11.6128L16.7741 76.2512L21.9225 70.0272L21.9354 70.001H25.8064C29.3676 70.001 32.258 72.8011 32.258 76.2512V78.7513Z" fill="#94C1FF"/>
<path d="M25.8065 70.001H21.9355C25.4942 70.0035 28.3833 72.8023 28.3833 76.2512V78.7513H32.2581V76.2512C32.2581 72.8011 29.3678 70.001 25.8065 70.001Z" fill="#5C9EFF"/>
<path d="M54.2064 37.5H72.2708C73.6915 37.5 74.8515 38.625 74.8515 40.0001V50.0504H74.8386H51.6257V40.0001C51.6257 38.625 52.787 37.5 54.2064 37.5Z" fill="white"/>
<path d="M72.2708 37.5H68.396C69.8166 37.5 70.9766 38.625 70.9766 40.0001V50.0504H74.8386H74.8515V40.0001C74.8515 38.625 73.6902 37.5 72.2708 37.5Z" fill="#D7E9FF"/>
<path d="M28.3871 51.6004V55.0005C28.3871 59.4132 25.7549 63.2383 21.9355 65.0771C20.3872 65.8259 18.6194 66.2509 16.7743 66.2509C14.9291 66.2509 13.1614 65.8259 11.613 65.0771C7.79363 63.2383 5.16138 59.4132 5.16138 55.0005V50.0004C7.30331 50.0004 9.03234 48.3253 9.03234 46.2502C9.03234 48.3253 10.7614 50.0004 12.9033 50.0004H23.2259V50.0266C25.1484 50.0266 26.9291 50.6016 28.3871 51.5892V51.6004Z" fill="#D7E9FF"/>
<path d="M24.512 50.1228V55.0005C24.512 59.4131 21.8798 63.2382 18.0604 65.077C17.0656 65.5583 15.9753 65.887 14.8359 66.0758C15.4695 66.1783 16.1134 66.2508 16.774 66.2508C18.6192 66.2508 20.3869 65.8258 21.9353 65.077C25.7546 63.2382 28.3869 59.4143 28.3869 55.0005V51.6003V51.5878C27.2604 50.8253 25.9404 50.3178 24.512 50.1228Z" fill="#94C1FF"/>
<path d="M47.7417 77.5013C47.0282 77.5013 46.4514 76.9425 46.4514 76.2512C46.4514 72.1148 49.9237 68.751 54.1933 68.751C54.9069 68.751 55.4837 69.3097 55.4837 70.001C55.4837 70.6923 54.9069 71.2511 54.1933 71.2511C51.3469 71.2511 49.0321 73.4936 49.0321 76.2512C49.0321 76.9425 48.4553 77.5013 47.7417 77.5013Z" fill="#116FFF"/>
<path d="M58.0644 71.2511H54.1934C53.4798 71.2511 52.9031 70.6923 52.9031 70.001C52.9031 69.3097 53.4798 68.751 54.1934 68.751H58.0644C58.7779 68.751 59.3547 69.3097 59.3547 70.001C59.3547 70.6923 58.7779 71.2511 58.0644 71.2511Z" fill="#116FFF"/>
<path d="M47.7417 79.9976C47.0282 79.9976 46.4514 79.4389 46.4514 78.7476V76.2513C46.4514 75.56 47.0282 75.0012 47.7417 75.0012C48.4553 75.0012 49.0321 75.56 49.0321 76.2513V78.7476C49.0321 79.4389 48.4553 79.9976 47.7417 79.9976Z" fill="#116FFF"/>
<path d="M78.7094 77.5013C77.9959 77.5013 77.4191 76.9425 77.4191 76.2512C77.4191 73.4936 75.1043 71.2511 72.2578 71.2511C71.5443 71.2511 70.9675 70.6923 70.9675 70.001C70.9675 69.3097 71.5443 68.751 72.2578 68.751C76.5275 68.751 79.9998 72.1148 79.9998 76.2512C79.9998 76.9425 79.423 77.5013 78.7094 77.5013Z" fill="#116FFF"/>
<path d="M72.258 71.2511H68.387C67.6735 71.2511 67.0967 70.6923 67.0967 70.001C67.0967 69.3097 67.6735 68.751 68.387 68.751H72.258C72.9715 68.751 73.5483 69.3097 73.5483 70.001C73.5483 70.6923 72.9715 71.2511 72.258 71.2511Z" fill="#116FFF"/>
<path d="M78.7098 79.9976C77.9962 79.9976 77.4194 79.4389 77.4194 78.7476V76.2513C77.4194 75.56 77.9962 75.0012 78.7098 75.0012C79.4233 75.0012 80.0001 75.56 80.0001 76.2513V78.7476C80.0001 79.4389 79.4233 79.9976 78.7098 79.9976Z" fill="#116FFF"/>
<path d="M58.0645 71.2508C57.3509 71.2508 56.7742 70.692 56.7742 70.0008V65.0806C56.7742 64.3893 57.3509 63.8306 58.0645 63.8306C58.778 63.8306 59.3548 64.3893 59.3548 65.0806V70.0008C59.3548 70.692 58.778 71.2508 58.0645 71.2508Z" fill="#116FFF"/>
<path d="M68.387 71.2508C67.6735 71.2508 67.0967 70.692 67.0967 70.0008V65.0806C67.0967 64.3893 67.6735 63.8306 68.387 63.8306C69.1005 63.8306 69.6773 64.3893 69.6773 65.0806V70.0008C69.6773 70.692 69.1005 71.2508 68.387 71.2508Z" fill="#116FFF"/>
<path d="M60.6439 72.501C60.4503 72.501 60.2529 72.4585 60.0684 72.3698L57.4878 71.1197C56.8503 70.811 56.5923 70.0597 56.911 69.4422C57.231 68.8247 58.0052 68.5771 58.6426 68.8834L61.2232 70.1334C61.8607 70.4422 62.1187 71.1935 61.8 71.811C61.5729 72.2485 61.1174 72.501 60.6439 72.501Z" fill="#116FFF"/>
<path d="M60.6465 72.5011C60.1729 72.5011 59.7174 72.2485 59.4903 71.8098C59.1716 71.1923 59.4297 70.441 60.0671 70.1322L62.6477 68.8822C63.2852 68.5759 64.0594 68.8234 64.3794 69.441C64.6981 70.0585 64.44 70.8098 63.8026 71.1185L61.2219 72.3686C61.0374 72.4586 60.84 72.5011 60.6465 72.5011Z" fill="#116FFF"/>
<path d="M65.8073 72.5011C65.3338 72.5011 64.8783 72.2485 64.6512 71.8098C64.3325 71.1923 64.5906 70.441 65.228 70.1322L67.8086 68.8822C68.446 68.5759 69.2202 68.8234 69.5402 69.441C69.859 70.0585 69.6009 70.8098 68.9635 71.1185L66.3828 72.3686C66.1983 72.4586 66.0009 72.5011 65.8073 72.5011Z" fill="#116FFF"/>
<path d="M65.8048 72.501C65.6112 72.501 65.4138 72.4585 65.2293 72.3698L62.6487 71.1197C62.0112 70.811 61.7532 70.0597 62.0719 69.4422C62.3919 68.8247 63.1661 68.5771 63.8035 68.8834L66.3841 70.1334C67.0215 70.4422 67.2796 71.1935 66.9609 71.811C66.7338 72.2485 66.2783 72.501 65.8048 72.501Z" fill="#116FFF"/>
<path d="M1.29032 77.4998C0.576773 77.4998 0 76.941 0 76.2497C0 72.1134 3.47225 68.7495 7.74192 68.7495C8.45546 68.7495 9.03224 69.3083 9.03224 69.9996C9.03224 70.6908 8.45546 71.2496 7.74192 71.2496C4.89547 71.2496 2.58064 73.4922 2.58064 76.2497C2.58064 76.941 2.00387 77.4998 1.29032 77.4998Z" fill="#116FFF"/>
<path d="M11.6129 71.2496H7.74198C7.02843 71.2496 6.45166 70.6908 6.45166 69.9996C6.45166 69.3083 7.02843 68.7495 7.74198 68.7495H11.6129C12.3265 68.7495 12.9033 69.3083 12.9033 69.9996C12.9033 70.6908 12.3265 71.2496 11.6129 71.2496Z" fill="#116FFF"/>
<path d="M1.29032 79.9974C0.576773 79.9974 0 79.4386 0 78.7474V76.2498C0 75.5585 0.576773 74.9998 1.29032 74.9998C2.00387 74.9998 2.58064 75.5585 2.58064 76.2498V78.7474C2.58064 79.4386 2.00387 79.9974 1.29032 79.9974Z" fill="#116FFF"/>
<path d="M32.2578 77.4998C31.5442 77.4998 30.9675 76.941 30.9675 76.2497C30.9675 73.4922 28.6526 71.2496 25.8062 71.2496C25.0926 71.2496 24.5159 70.6908 24.5159 69.9996C24.5159 69.3083 25.0926 68.7495 25.8062 68.7495C30.0759 68.7495 33.5481 72.1134 33.5481 76.2497C33.5481 76.941 32.9713 77.4998 32.2578 77.4998Z" fill="#116FFF"/>
<path d="M25.8065 71.2496H21.9356C21.222 71.2496 20.6453 70.6908 20.6453 69.9996C20.6453 69.3083 21.222 68.7495 21.9356 68.7495H25.8065C26.5201 68.7495 27.0969 69.3083 27.0969 69.9996C27.0969 70.6908 26.5201 71.2496 25.8065 71.2496Z" fill="#116FFF"/>
<path d="M32.2578 79.9974C31.5443 79.9974 30.9675 79.4386 30.9675 78.7474V76.2498C30.9675 75.5585 31.5443 74.9998 32.2578 74.9998C32.9714 74.9998 33.5482 75.5585 33.5482 76.2498V78.7474C33.5482 79.4386 32.9714 79.9974 32.2578 79.9974Z" fill="#116FFF"/>
<path d="M11.6131 71.2498C10.8995 71.2498 10.3228 70.6911 10.3228 69.9998V65.0796C10.3228 64.3884 10.8995 63.8296 11.6131 63.8296C12.3266 63.8296 12.9034 64.3884 12.9034 65.0796V69.9998C12.9034 70.6911 12.3266 71.2498 11.6131 71.2498Z" fill="#116FFF"/>
<path d="M21.9356 71.2498C21.222 71.2498 20.6453 70.6911 20.6453 69.9998V65.0796C20.6453 64.3884 21.222 63.8296 21.9356 63.8296C22.6491 63.8296 23.2259 64.3884 23.2259 65.0796V69.9998C23.2259 70.6911 22.6491 71.2498 21.9356 71.2498Z" fill="#116FFF"/>
<path d="M16.7717 67.4996C9.65818 67.4996 3.87109 61.8932 3.87109 55.0017C3.87109 54.3105 4.44787 53.7517 5.16141 53.7517C5.87496 53.7517 6.45173 54.3105 6.45173 55.0017C6.45173 60.5144 11.0814 64.9996 16.7717 64.9996C22.4646 64.9996 27.0968 60.5144 27.0968 55.0017C27.0968 54.3105 27.6736 53.7517 28.3872 53.7517C29.1007 53.7517 29.6775 54.3105 29.6775 55.0017C29.6775 61.8932 23.8878 67.4996 16.7717 67.4996Z" fill="#116FFF"/>
<path d="M32.2582 49.3903C31.5446 49.3903 30.9678 48.8315 30.9678 48.1403C30.9678 41.5938 25.4698 36.2674 18.7137 36.2674C15.2517 36.2674 12.1408 37.4574 9.95369 39.6212C9.45434 40.1138 8.63756 40.1213 8.12918 39.6387C7.6195 39.1562 7.61305 38.3637 8.11111 37.8712C10.7872 35.2261 14.5524 33.7686 18.7137 33.7686C26.8943 33.7686 33.5485 40.2163 33.5485 48.1415C33.5485 48.8303 32.9717 49.3903 32.2582 49.3903Z" fill="#116FFF"/>
<path d="M63.2269 35.0073C63.0902 35.0073 62.9521 34.9861 62.8192 34.9423L55.2747 32.5073L36.1302 32.5223H36.1289C35.787 32.5223 35.458 32.391 35.2167 32.156C34.9754 31.921 34.8386 31.6035 34.8386 31.2722V1.25004C34.8386 0.558767 35.4154 0 36.1289 0H67.0979C67.8115 0 68.3882 0.558767 68.3882 1.25004V31.2572C68.3882 31.9485 67.8115 32.5073 67.0979 32.5073H64.5186L64.5173 33.7586C64.5173 34.1598 64.3173 34.5373 63.9805 34.7723C63.7586 34.9261 63.494 35.0073 63.2269 35.0073ZM55.4837 30.0072C55.6218 30.0072 55.7599 30.0297 55.8915 30.0722L61.9379 32.0248L61.9392 31.2572C61.9405 30.5672 62.5173 30.0084 63.2295 30.0084H65.8076V2.50008H37.4193V30.0209L55.4837 30.0072Z" fill="#116FFF"/>
<path d="M20.6425 30.0047C20.3883 30.0047 20.1354 29.9309 19.9186 29.7897C19.5651 29.5559 19.3522 29.1697 19.3522 28.7547V27.5046H16.7715C16.058 27.5046 15.4812 26.9459 15.4812 26.2546V10.0091C15.4812 9.3178 16.058 8.75903 16.7715 8.75903H36.1186C36.8321 8.75903 37.4089 9.3178 37.4089 10.0091C37.4089 10.7003 36.8321 11.2591 36.1186 11.2591H18.0618V25.0045H20.6425C21.356 25.0045 21.9328 25.5633 21.9328 26.2546V26.9084L26.6154 25.0933C26.7676 25.0345 26.9302 25.0045 27.0941 25.0045H27.0967L36.1212 25.0195C36.8334 25.0208 37.4102 25.5808 37.4089 26.2721C37.4076 26.9621 36.8308 27.5196 36.1186 27.5196C36.1173 27.5196 36.1173 27.5196 36.116 27.5196L27.3405 27.5046L21.1212 29.9159C20.9676 29.9747 20.8051 30.0047 20.6425 30.0047Z" fill="#116FFF"/>
<path d="M5.16141 56.2518C4.44787 56.2518 3.87109 55.6931 3.87109 55.0018V42.4952C3.87109 41.8039 4.44787 41.2451 5.16141 41.2451C5.87496 41.2451 6.45173 41.8039 6.45173 42.4952V55.0018C6.45173 55.6931 5.87496 56.2518 5.16141 56.2518Z" fill="#116FFF"/>
<path d="M5.16141 51.2478C4.44787 51.2478 3.87109 50.689 3.87109 49.9977C3.87109 49.3064 4.44787 48.7477 5.16141 48.7477C6.58464 48.7477 7.74205 47.6264 7.74205 46.2476C7.74205 45.5563 8.31883 44.9976 9.03237 44.9976C9.74592 44.9976 10.3227 45.5563 10.3227 46.2476C10.3227 49.0052 8.00786 51.2478 5.16141 51.2478Z" fill="#116FFF"/>
<path d="M12.9056 51.2454C10.0604 51.2454 7.74561 49.0016 7.74561 46.2427C7.74561 45.5514 8.32238 44.9927 9.03593 44.9927C9.74947 44.9927 10.3262 45.5514 10.3262 46.2427C10.3262 47.6228 11.4824 48.7453 12.9056 48.7453C13.6191 48.7453 14.1959 49.3041 14.1959 49.9953C14.1959 50.6866 13.6191 51.2454 12.9056 51.2454Z" fill="#116FFF"/>
<path d="M5.16385 43.7451C4.45031 43.7451 3.87354 43.1863 3.87354 42.495C3.87354 39.7374 6.18837 37.4949 9.03481 37.4949C9.74836 37.4949 10.3251 38.0536 10.3251 38.7449C10.3251 39.4362 9.74836 39.995 9.03481 39.995C7.61159 39.995 6.45417 41.1162 6.45417 42.495C6.45417 43.1863 5.8774 43.7451 5.16385 43.7451Z" fill="#116FFF"/>
<path d="M9.03202 47.4977C8.31847 47.4977 7.7417 46.9377 7.7417 46.2476L7.74428 38.7449C7.74428 38.0536 8.32234 37.4949 9.0346 37.4949C9.74815 37.4949 10.3249 38.0549 10.3249 38.7449L10.3223 46.2476C10.3223 46.9389 9.74428 47.4977 9.03202 47.4977Z" fill="#116FFF"/>
<path d="M32.2605 60.0343C31.547 60.0343 30.9702 59.4756 30.9702 58.7843C30.9702 54.6429 27.4941 51.2716 23.2193 51.2716C22.5057 51.2716 21.929 50.7128 21.929 50.0215C21.929 49.3303 22.5057 48.7715 23.2193 48.7715C28.916 48.7715 33.5509 53.2629 33.5509 58.7843C33.5509 59.4756 32.9741 60.0343 32.2605 60.0343Z" fill="#116FFF"/>
<path d="M23.2296 51.2503H12.907C12.1935 51.2503 11.6167 50.6916 11.6167 50.0003C11.6167 49.309 12.1935 48.7502 12.907 48.7502H23.2296C23.9431 48.7502 24.5199 49.309 24.5199 50.0003C24.5199 50.6916 23.9431 51.2503 23.2296 51.2503Z" fill="#116FFF"/>
<path d="M28.3872 56.2517C27.6737 56.2517 27.0969 55.693 27.0969 55.0017V51.5916C27.0969 50.9003 27.6737 50.3416 28.3872 50.3416C29.1008 50.3416 29.6776 50.9003 29.6776 51.5916V55.0017C29.6776 55.693 29.1008 56.2517 28.3872 56.2517Z" fill="#116FFF"/>
<path d="M32.2605 60.0255C31.547 60.0255 30.9702 59.4668 30.9702 58.7755V48.1402C30.9702 47.4489 31.547 46.8901 32.2605 46.8901C32.9741 46.8901 33.5509 47.4489 33.5509 48.1402V58.7755C33.5509 59.4655 32.9741 60.0255 32.2605 60.0255Z" fill="#116FFF"/>
<path d="M16.773 77.4999C16.4904 77.4999 16.2053 77.4099 15.9679 77.2249C15.4105 76.7924 15.3214 76.0061 15.7679 75.4686L20.9214 69.2409C21.3666 68.7021 22.182 68.6159 22.7343 69.0471C23.2917 69.4797 23.3808 70.2659 22.9343 70.8034L17.7808 77.0311C17.5266 77.3399 17.1511 77.4999 16.773 77.4999Z" fill="#116FFF"/>
<path d="M16.7756 77.4997C16.3963 77.4997 16.0221 77.3385 15.7666 77.031L10.6066 70.7808C10.1614 70.2407 10.253 69.4545 10.8079 69.0232C11.3679 68.5907 12.1756 68.6819 12.6221 69.2182L17.7821 75.4684C18.2272 76.0084 18.1356 76.7947 17.5808 77.226C17.3421 77.411 17.0582 77.4997 16.7756 77.4997Z" fill="#116FFF"/>
<path d="M51.6128 56.2018C50.8993 56.2018 50.3225 55.643 50.3225 54.9517V49.9991C50.3225 49.3078 50.8993 48.749 51.6128 48.749C52.3264 48.749 52.9031 49.3078 52.9031 49.9991V54.9517C52.9031 55.643 52.3264 56.2018 51.6128 56.2018Z" fill="#116FFF"/>
<path d="M74.8387 56.2518C74.1251 56.2518 73.5483 55.693 73.5483 55.0017V49.9991C73.5483 49.3078 74.1251 48.749 74.8387 48.749C75.5522 48.749 76.129 49.3078 76.129 49.9991V55.0017C76.129 55.693 75.5522 56.2518 74.8387 56.2518Z" fill="#116FFF"/>
<path d="M63.2244 67.5021C56.1096 67.5021 50.3225 61.8957 50.3225 55.0042C50.3225 54.3129 50.8993 53.7542 51.6128 53.7542C52.3264 53.7542 52.9031 54.3129 52.9031 55.0042C52.9031 60.5169 57.5328 65.002 63.2244 65.002C68.9173 65.002 73.5483 60.5169 73.5483 55.0042C73.5483 54.3129 74.125 53.7542 74.8386 53.7542C75.5521 53.7542 76.1289 54.3129 76.1289 55.0042C76.1289 61.8957 70.3405 67.5021 63.2244 67.5021Z" fill="#116FFF"/>
<path d="M74.8579 51.3029H51.6231C50.9095 51.3029 50.3328 50.7441 50.3328 50.0529V40.0026C50.3328 37.935 52.0695 36.2524 54.2037 36.2524H72.2772C74.4114 36.2524 76.1482 37.935 76.1482 40.0026V50.0529C76.1482 50.7441 75.5701 51.3029 74.8579 51.3029ZM52.9134 48.8028H73.5676V40.0026C73.5676 39.3125 72.9895 38.7525 72.2772 38.7525H54.2037C53.4915 38.7525 52.9134 39.3125 52.9134 40.0026V48.8028Z" fill="#116FFF"/>
<path d="M63.2217 47.5189C62.5082 47.5189 61.9314 46.9601 61.9314 46.2689V41.2537C61.9314 40.5624 62.5082 40.0037 63.2217 40.0037C63.9353 40.0037 64.512 40.5624 64.512 41.2537V46.2689C64.512 46.9589 63.9353 47.5189 63.2217 47.5189Z" fill="#FF5B6E"/>
<path d="M65.8035 45.0264H60.6397C59.9261 45.0264 59.3494 44.4677 59.3494 43.7764C59.3494 43.0851 59.9261 42.5264 60.6397 42.5264H65.8035C66.5171 42.5264 67.0939 43.0851 67.0939 43.7764C67.0939 44.4677 66.5171 45.0264 65.8035 45.0264Z" fill="#FF5B6E"/>
<path d="M60.6439 80C60.0826 80 59.5665 79.6425 59.4039 79.0925L56.8233 70.3434C56.6285 69.6809 57.0246 68.9884 57.711 68.7984C58.3898 68.6159 59.1097 68.9922 59.3059 69.6584L61.8865 78.4074C62.0814 79.07 61.6852 79.7625 60.9988 79.9525C60.8814 79.9837 60.7626 80 60.6439 80Z" fill="#116FFF"/>
<path d="M65.8075 79.9999C65.6888 79.9999 65.5701 79.9837 65.4526 79.9524C64.7675 79.7624 64.3701 79.0699 64.5649 78.4074L67.1455 69.6583C67.3417 68.9933 68.063 68.6158 68.7404 68.7983C69.4255 68.9883 69.823 69.6808 69.6281 70.3434L67.0475 79.0924C66.8849 79.6424 66.3688 79.9999 65.8075 79.9999Z" fill="#116FFF"/>
<path d="M51.6126 26.2509C45.921 26.2509 41.29 21.7645 41.29 16.2506C41.29 10.7366 45.921 6.25024 51.6126 6.25024C57.3042 6.25024 61.9352 10.7366 61.9352 16.2506C61.9352 21.7645 57.3042 26.2509 51.6126 26.2509ZM51.6126 8.75032C47.3429 8.75032 43.8707 12.1142 43.8707 16.2506C43.8707 20.3869 47.3429 23.7508 51.6126 23.7508C55.8823 23.7508 59.3545 20.3869 59.3545 16.2506C59.3545 12.1142 55.8823 8.75032 51.6126 8.75032Z" fill="#116FFF"/>
<path d="M51.6128 21.2481C50.8993 21.2481 50.3225 20.6893 50.3225 19.9981V12.4978C50.3225 11.8066 50.8993 11.2478 51.6128 11.2478C52.3264 11.2478 52.9031 11.8066 52.9031 12.4978V19.9981C52.9031 20.6893 52.3264 21.2481 51.6128 21.2481Z" fill="#FF5B6E"/>
<path d="M55.4837 17.4981H47.7417C47.0282 17.4981 46.4514 16.9394 46.4514 16.2481C46.4514 15.5568 47.0282 14.998 47.7417 14.998H55.4837C56.1972 14.998 56.774 15.5568 56.774 16.2481C56.774 16.9394 56.1972 17.4981 55.4837 17.4981Z" fill="#FF5B6E"/>
</svg>
