<svg width="80" height="80" viewBox="0 0 80 80" fill="none" xmlns="http://www.w3.org/2000/svg">
<path d="M22.8571 14.2857C25.616 14.2857 28.5714 9.255 28.5714 5.71429C28.5714 4.19876 27.9694 2.74531 26.8977 1.67368C25.8261 0.602039 24.3726 0 22.8571 0C21.3416 0 19.8881 0.602039 18.8165 1.67368C17.7449 2.74531 17.1428 4.19876 17.1428 5.71429C17.1428 9.255 20.0982 14.2857 22.8571 14.2857Z" fill="#00C3FF"/>
<path d="M79.9999 79.8572V0.142868C78.3876 0.474403 76.939 1.35166 75.8981 2.62676C74.8572 3.90187 74.2877 5.49685 74.2856 7.14287V72.8572C74.2877 74.5032 74.8572 76.0982 75.8981 77.3733C76.939 78.6484 78.3876 79.5256 79.9999 79.8572Z" fill="#00C3FF"/>
<path d="M27.1428 77.1429C27.1428 77.9006 27.4438 78.6274 27.9797 79.1632C28.5155 79.699 29.2422 80 30 80C30.7577 80 31.4845 79.699 32.0203 79.1632C32.5561 78.6274 32.8571 77.9006 32.8571 77.1429V65.7143H27.1428V77.1429Z" fill="#00C3FF"/>
<path d="M12.8572 77.1429C12.8572 77.9006 13.1582 78.6274 13.694 79.1632C14.2298 79.699 14.9566 80 15.7143 80C16.4721 80 17.1988 79.699 17.7346 79.1632C18.2704 78.6274 18.5715 77.9006 18.5715 77.1429V65.7143H12.8572V77.1429Z" fill="#00C3FF"/>
<path d="M32.857 17.1429H12.857C11.2111 17.145 9.61633 17.7146 8.34139 18.7555C7.06646 19.7964 6.18935 21.245 5.85791 22.8571H39.857C39.5255 21.2448 38.6483 19.7961 37.3732 18.7552C36.0981 17.7143 34.5031 17.1448 32.857 17.1429Z" fill="#00C3FF"/>
<path d="M22.8571 57.1428C23.7431 57.1418 24.6071 56.8667 25.3306 56.3551C26.0541 55.8436 26.6016 55.1207 26.8979 54.2857H18.8162C19.1125 55.1207 19.66 55.8436 20.3835 56.3551C21.107 56.8667 21.971 57.1418 22.8571 57.1428Z" fill="#00C3FF"/>
<path d="M45.7143 25.7143H0V62.8571H45.7143V25.7143ZM37.1429 41.4286C36.8579 41.4286 36.5793 41.3435 36.3431 41.184C36.1069 41.0246 35.9238 40.7981 35.8173 40.5337C34.4841 39.9825 29.1163 39.9902 24.7625 39.998H24.2857V44.2837H24.3768C30.6766 44.2704 33.767 44.323 35.0741 45.628C35.2771 45.8246 35.4384 46.06 35.5484 46.3203C35.6584 46.5805 35.7148 46.8603 35.7143 47.1429C35.7146 47.4821 35.5942 47.8104 35.3746 48.069C35.155 48.3276 34.8505 48.4996 34.5156 48.5542C34.1808 48.6088 33.8375 48.5424 33.5471 48.367C33.2567 48.1916 33.0382 47.9186 32.9307 47.5968C31.803 47.1262 27.5404 47.1325 24.3825 47.1409H24.2857V51.4286H28.5714C28.9503 51.4286 29.3137 51.5791 29.5816 51.847C29.8495 52.1149 30 52.4783 30 52.8571C30 54.7515 29.2475 56.5684 27.9079 57.9079C26.5684 59.2474 24.7515 60 22.8571 60C20.9627 60 19.1459 59.2474 17.8064 57.9079C16.4668 56.5684 15.7143 54.7515 15.7143 52.8571C15.7143 52.4783 15.8648 52.1149 16.1327 51.847C16.4006 51.5791 16.764 51.4286 17.1429 51.4286H21.4286V47.1411H21.3318C18.1746 47.1336 13.9114 47.1262 12.7836 47.597C12.6761 47.9188 12.4576 48.1918 12.1672 48.3672C11.8768 48.5427 11.5334 48.609 11.1986 48.5544C10.8637 48.4997 10.5592 48.3277 10.3396 48.0691C10.12 47.8105 9.99963 47.4821 10 47.1429C9.9995 46.8603 10.0559 46.5805 10.1659 46.3203C10.2759 46.06 10.4372 45.8246 10.6402 45.628C11.9477 44.3232 15.0343 44.2695 21.3375 44.2837H21.4286V39.998H20.9518C16.5961 39.9896 11.2302 39.9827 9.89696 40.5337C9.7732 40.8417 9.54608 41.097 9.25459 41.2557C8.96311 41.4144 8.62546 41.4667 8.29963 41.4035C7.97379 41.3404 7.68012 41.1657 7.46903 40.9096C7.25794 40.6535 7.14261 40.3319 7.14286 40C7.14449 39.7312 7.19945 39.4655 7.30456 39.2182C7.40967 38.9708 7.56284 38.7468 7.75518 38.5591C9.13589 37.1805 12.8029 37.1273 20.9562 37.1409H21.4286V32.8552H21.3318C18.1746 32.8484 13.9114 32.8404 12.7836 33.3111C12.6761 33.6329 12.4576 33.9059 12.1672 34.0813C11.8768 34.2567 11.5335 34.3231 11.1986 34.2685C10.8638 34.2139 10.5593 34.0419 10.3397 33.7833C10.1201 33.5247 9.99967 33.1964 10 32.8571C9.9995 32.5746 10.0559 32.2948 10.1659 32.0346C10.2759 31.7743 10.4372 31.5389 10.6402 31.3423C11.9477 30.0375 15.0343 29.9836 21.3375 29.998H21.4286C21.4286 29.6191 21.5791 29.2558 21.847 28.9879C22.1149 28.72 22.4783 28.5695 22.8571 28.5695C23.236 28.5695 23.5994 28.72 23.8673 28.9879C24.1352 29.2558 24.2857 29.6191 24.2857 29.998H24.3768C30.6766 29.9839 33.767 30.0373 35.0741 31.3423C35.2771 31.5389 35.4384 31.7743 35.5484 32.0346C35.6584 32.2948 35.7148 32.5746 35.7143 32.8571C35.7146 33.1964 35.5942 33.5247 35.3746 33.7833C35.155 34.0419 34.8505 34.2139 34.5156 34.2685C34.1808 34.3231 33.8375 34.2567 33.5471 34.0813C33.2567 33.9059 33.0382 33.6329 32.9307 33.3111C31.803 32.8405 27.5404 32.8479 24.3825 32.8552H24.2857V37.1409H24.758C32.9166 37.1275 36.5786 37.1804 37.9591 38.5591C38.1514 38.7468 38.3046 38.9708 38.4097 39.2182C38.5148 39.4655 38.5698 39.7312 38.5714 40C38.5714 40.3789 38.4209 40.7422 38.153 41.0101C37.8851 41.2781 37.5217 41.4286 37.1429 41.4286Z" fill="#00C3FF"/>
<path d="M67.1572 72.8571H67.1429C66.7628 72.859 66.3989 73.0116 66.1311 73.2814C65.8633 73.5512 65.7134 73.9162 65.7144 74.2964C65.7153 74.6765 65.867 75.0408 66.1361 75.3093C66.4053 75.5778 66.7699 75.7285 67.1501 75.7285C67.5302 75.7285 67.8949 75.5778 68.164 75.3093C68.4332 75.0408 68.5848 74.6765 68.5858 74.2964C68.5867 73.9162 68.4369 73.5512 68.1691 73.2814C67.9012 73.0116 67.5374 72.859 67.1572 72.8571Z" fill="#00C3FF"/>
<path d="M67.1572 67.1429H67.1429C66.7628 67.1448 66.3989 67.2974 66.1311 67.5672C65.8633 67.837 65.7134 68.202 65.7144 68.5822C65.7153 68.9623 65.867 69.3266 66.1361 69.595C66.4053 69.8635 66.7699 70.0143 67.1501 70.0143C67.5302 70.0143 67.8949 69.8635 68.164 69.595C68.4332 69.3266 68.5848 68.9623 68.5858 68.5822C68.5867 68.202 68.4369 67.837 68.1691 67.5672C67.9012 67.2974 67.5374 67.1448 67.1572 67.1429Z" fill="#00C3FF"/>
<path d="M67.1572 61.4286H67.1429C66.7628 61.4304 66.3989 61.583 66.1311 61.8528C65.8633 62.1227 65.7134 62.4877 65.7144 62.8678C65.7153 63.248 65.867 63.6122 66.1361 63.8807C66.4053 64.1492 66.7699 64.3 67.1501 64.3C67.5302 64.3 67.8949 64.1492 68.164 63.8807C68.4332 63.6122 68.5848 63.248 68.5858 62.8678C68.5867 62.4877 68.4369 62.1227 68.1691 61.8528C67.9012 61.583 67.5374 61.4304 67.1572 61.4286Z" fill="#00C3FF"/>
<path d="M67.1572 55.7143H67.1429C66.7628 55.7162 66.3989 55.8688 66.1311 56.1386C65.8633 56.4084 65.7134 56.7734 65.7144 57.1536C65.7153 57.5337 65.867 57.898 66.1361 58.1665C66.4053 58.4349 66.7699 58.5857 67.1501 58.5857C67.5302 58.5857 67.8949 58.4349 68.164 58.1665C68.4332 57.898 68.5848 57.5337 68.5858 57.1536C68.5867 56.7734 68.4369 56.4084 68.1691 56.1386C67.9012 55.8688 67.5374 55.7162 67.1572 55.7143Z" fill="#00C3FF"/>
<path d="M67.1572 50H67.1429C66.7628 50.0019 66.3989 50.1545 66.1311 50.4243C65.8633 50.6941 65.7134 51.0591 65.7144 51.4393C65.7153 51.8194 65.867 52.1837 66.1361 52.4522C66.4053 52.7206 66.7699 52.8714 67.1501 52.8714C67.5302 52.8714 67.8949 52.7206 68.164 52.4522C68.4332 52.1837 68.5848 51.8194 68.5858 51.4393C68.5867 51.0591 68.4369 50.6941 68.1691 50.4243C67.9012 50.1545 67.5374 50.0019 67.1572 50Z" fill="#00C3FF"/>
<path d="M67.1572 44.2857H67.1429C66.7628 44.2876 66.3989 44.4402 66.1311 44.71C65.8633 44.9798 65.7134 45.3448 65.7144 45.725C65.7153 46.1051 65.867 46.4694 66.1361 46.7379C66.4053 47.0063 66.7699 47.1571 67.1501 47.1571C67.5302 47.1571 67.8949 47.0063 68.164 46.7379C68.4332 46.4694 68.5848 46.1051 68.5858 45.725C68.5867 45.3448 68.4369 44.9798 68.1691 44.71C67.9012 44.4402 67.5374 44.2876 67.1572 44.2857Z" fill="#00C3FF"/>
<path d="M67.1572 38.5714H67.1429C66.7628 38.5733 66.3989 38.7259 66.1311 38.9957C65.8633 39.2655 65.7134 39.6306 65.7144 40.0107C65.7153 40.3909 65.867 40.7551 66.1361 41.0236C66.4053 41.2921 66.7699 41.4429 67.1501 41.4429C67.5302 41.4429 67.8949 41.2921 68.164 41.0236C68.4332 40.7551 68.5848 40.3909 68.5858 40.0107C68.5867 39.6306 68.4369 39.2655 68.1691 38.9957C67.9012 38.7259 67.5374 38.5733 67.1572 38.5714Z" fill="#00C3FF"/>
<path d="M67.1572 32.8571H67.1429C66.7628 32.859 66.3989 33.0116 66.1311 33.2814C65.8633 33.5512 65.7134 33.9163 65.7144 34.2964C65.7153 34.6766 65.867 35.0408 66.1361 35.3093C66.4053 35.5778 66.7699 35.7286 67.1501 35.7286C67.5302 35.7286 67.8949 35.5778 68.164 35.3093C68.4332 35.0408 68.5848 34.6766 68.5858 34.2964C68.5867 33.9163 68.4369 33.5512 68.1691 33.2814C67.9012 33.0116 67.5374 32.859 67.1572 32.8571Z" fill="#00C3FF"/>
<path d="M67.1572 4.28572H67.1429C66.7628 4.28761 66.3989 4.4402 66.1311 4.71001C65.8633 4.97982 65.7134 5.34483 65.7144 5.72499C65.7153 6.10514 65.867 6.46941 66.1361 6.73788C66.4053 7.00636 66.7699 7.15713 67.1501 7.15713C67.5302 7.15713 67.8949 7.00636 68.164 6.73788C68.4332 6.46941 68.5848 6.10514 68.5858 5.72499C68.5867 5.34483 68.4369 4.97982 68.1691 4.71001C67.9012 4.4402 67.5374 4.28761 67.1572 4.28572Z" fill="#00C3FF"/>
<path d="M67.1572 27.1429H67.1429C66.7628 27.1447 66.3989 27.2973 66.1311 27.5671C65.8633 27.837 65.7134 28.202 65.7144 28.5821C65.7153 28.9623 65.867 29.3265 66.1361 29.595C66.4053 29.8635 66.7699 30.0143 67.1501 30.0143C67.5302 30.0143 67.8949 29.8635 68.164 29.595C68.4332 29.3265 68.5848 28.9623 68.5858 28.5821C68.5867 28.202 68.4369 27.837 68.1691 27.5671C67.9012 27.2973 67.5374 27.1447 67.1572 27.1429Z" fill="#00C3FF"/>
<path d="M67.1572 21.4286H67.1429C66.7628 21.4305 66.3989 21.5831 66.1311 21.8529C65.8633 22.1227 65.7134 22.4877 65.7144 22.8678C65.7153 23.248 65.867 23.6123 66.1361 23.8807C66.4053 24.1492 66.7699 24.3 67.1501 24.3C67.5302 24.3 67.8949 24.1492 68.164 23.8807C68.4332 23.6123 68.5848 23.248 68.5858 22.8678C68.5867 22.4877 68.4369 22.1227 68.1691 21.8529C67.9012 21.5831 67.5374 21.4305 67.1572 21.4286Z" fill="#00C3FF"/>
<path d="M67.1572 15.7143H67.1429C66.7628 15.7162 66.3989 15.8688 66.1311 16.1386C65.8633 16.4084 65.7134 16.7734 65.7144 17.1535C65.7153 17.5337 65.867 17.898 66.1361 18.1664C66.4053 18.4349 66.7699 18.5857 67.1501 18.5857C67.5302 18.5857 67.8949 18.4349 68.164 18.1664C68.4332 17.898 68.5848 17.5337 68.5858 17.1535C68.5867 16.7734 68.4369 16.4084 68.1691 16.1386C67.9012 15.8688 67.5374 15.7162 67.1572 15.7143Z" fill="#00C3FF"/>
<path d="M67.1572 10H67.1429C66.7628 10.0019 66.3989 10.1545 66.1311 10.4243C65.8633 10.6941 65.7134 11.0591 65.7144 11.4393C65.7153 11.8194 65.867 12.1837 66.1361 12.4522C66.4053 12.7206 66.7699 12.8714 67.1501 12.8714C67.5302 12.8714 67.8949 12.7206 68.164 12.4522C68.4332 12.1837 68.5848 11.8194 68.5858 11.4393C68.5867 11.0591 68.4369 10.6941 68.1691 10.4243C67.9012 10.1545 67.5374 10.0019 67.1572 10Z" fill="#00C3FF"/>
<path d="M62.8571 74.2857V5.71429C62.8571 5.33541 62.7066 4.97205 62.4387 4.70414C62.1707 4.43623 61.8074 4.28572 61.4285 4.28572H35.7142C35.3353 4.28572 34.972 4.43623 34.7041 4.70414C34.4362 4.97205 34.2856 5.33541 34.2856 5.71429C34.2856 6.09317 34.4362 6.45654 34.7041 6.72444C34.972 6.99235 35.3353 7.14286 35.7142 7.14286H59.9999V72.8571H44.2856C43.9068 72.8571 43.5434 73.0077 43.2755 73.2756C43.0076 73.5435 42.8571 73.9068 42.8571 74.2857C42.8571 74.6646 43.0076 75.028 43.2755 75.2959C43.5434 75.5638 43.9068 75.7143 44.2856 75.7143H61.4285C61.8074 75.7143 62.1707 75.5638 62.4387 75.2959C62.7066 75.028 62.8571 74.6646 62.8571 74.2857Z" fill="#00C3FF"/>
</svg>
